<?xml version="1.0" standalone="no"?><!DOCTYPE svg PUBLIC "-//W3C//DTD SVG 1.1//EN" "http://www.w3.org/Graphics/SVG/1.1/DTD/svg11.dtd"><svg t="1772111975105" class="icon" viewBox="0 0 1024 1024" version="1.1" xmlns="http://www.w3.org/2000/svg" p-id="1579" xmlns:xlink="http://www.w3.org/1999/xlink" width="200" height="200"><path d="M972.8 998.4H51.2a25.6 25.6 0 0 1-25.6-25.6V51.2A25.6 25.6 0 0 1 51.2 25.6h921.6a25.6 25.6 0 0 1 25.6 25.6v921.6a25.6 25.6 0 0 1-25.6 25.6z m-896-51.2h870.4V76.8H76.8v870.4z" p-id="1580"></path><path d="M870.4 537.6H153.6a25.6 25.6 0 1 1 0-51.2h716.8a25.6 25.6 0 1 1 0 51.2z" p-id="1581"></path></svg>