<?xml version="1.0" standalone="no"?><!DOCTYPE svg PUBLIC "-//W3C//DTD SVG 1.1//EN" "http://www.w3.org/Graphics/SVG/1.1/DTD/svg11.dtd"><svg t="1772122436869" class="icon" viewBox="0 0 1024 1024" version="1.1" xmlns="http://www.w3.org/2000/svg" p-id="38836" xmlns:xlink="http://www.w3.org/1999/xlink" width="200" height="200"><path d="M629.689143 93.649175c0 23.54023-19.958021 42.474763-44.009995 42.474763h-383.808096c-24.563718 0-44.009995-18.934533-44.009995-42.474763v-51.174412c0-23.54023 19.958021-42.474763 44.009995-42.474763h383.808096c24.563718 0 44.009995 18.934533 44.009995 42.474763v51.174412z m-31.216392-63.968016c0-7.676162-6.652674-14.328836-14.84058-14.328835H203.406284c-8.187906 0-14.84058 6.14093-14.840579 14.328835v61.92104c0 7.676162 6.652674 14.328836 14.840579 14.328835H583.632171c8.187906 0 14.84058-6.14093 14.84058-14.328835V29.681159z" p-id="38837" fill="#1296db"></path><path d="M766.836569 45.545227h-120.771614v46.056972c0 31.216392-16.375812 59.362319-49.127436 59.362319H213.641167c-34.798601 0-72.155922-15.864068-72.155922-59.362319v-46.056972h-81.879061c-35.822089 0-59.362319 15.352324-59.362318 44.009995V962.590705c0 30.192904 26.098951 61.409295 59.362318 61.409295h707.230385c32.751624 0 52.197901-31.216392 52.197901-61.409295V89.555222c0-28.657671-16.887556-44.009995-52.197901-44.009995z m-412.977511 767.616192H103.616179c-16.375812 0-29.681159-10.746627-29.681159-22.516741 0-11.770115 13.305347-22.516742 29.681159-22.516742h250.242879c16.375812 0 29.681159 10.746627 29.681159 22.516742 0 11.770115-13.305347 22.516742-29.681159 22.516741z m103.372314-90.066966H103.616179c-16.375812 0-29.681159-10.746627-29.681159-22.516742 0-11.770115 13.305347-22.516742 29.681159-22.516741h353.615193c16.375812 0 29.681159 10.746627 29.681159 22.516741-0.511744 11.258371-13.817091 22.516742-29.681159 22.516742z m88.01999-105.419291H103.616179c-16.375812 0-29.681159-10.746627-29.681159-22.516741s13.305347-22.516742 29.681159-22.516742h442.146927c16.375812 0 29.681159 10.746627 29.681159 22.516742s-13.817091 22.516742-30.192903 22.516741z m132.541729-90.57871H103.616179c-16.375812 0-29.681159-10.746627-29.681159-22.516742s13.305347-22.516742 29.681159-22.516741h574.688656c16.375812 0 29.681159 10.746627 29.68116 22.516741-0.511744 11.770115-13.817091 22.516742-30.192904 22.516742z m0-104.907546H103.616179c-16.375812 0-29.681159-10.746627-29.681159-22.516742 0-11.770115 13.305347-22.516742 29.681159-22.516742h574.688656c16.375812 0 29.681159 10.746627 29.68116 22.516742-0.511744 11.258371-13.817091 22.516742-30.192904 22.516742z m0-105.419291H103.616179c-16.375812 0-29.681159-3.582209-29.681159-14.84058S87.240367 287.088456 103.616179 287.088456h574.688656c16.375812 0 29.681159 3.582209 29.68116 14.840579s-13.817091 14.84058-30.192904 14.84058z m331.610195-124.865567l-33.263368-61.409295c-8.187906-15.864068-18.934533-17.911044-25.075463-17.911045-6.14093 0-17.3993 2.558721-25.587206 18.422789l-31.728136 61.409295c-10.746627 20.469765-12.281859 53.221389-12.281859 59.874063V977.943028c0 23.54023 15.352324 31.216392 39.404298 31.216392h58.850574c25.587206 0 43.498251-7.164418 43.498251-31.216392V252.289855c0.511744-20.469765-7.164418-48.103948-13.817091-60.385807zM952.087944 143.8001l35.310344 61.409295c3.070465 5.629185 6.14093 5.629185 8.699651 20.98151H916.265855c1.535232-14.84058 3.582209-15.864068 6.140929-20.98151-0.511744 0 29.681159-61.409295 29.68116-61.409295z" p-id="38838" fill="#1296db"></path></svg>